<?xml version="1.0" encoding="UTF-8"?>
<svg version="1.1" xmlns="http://www.w3.org/2000/svg" width="3000" height="3000">
<path d="M0 0 C990 0 1980 0 3000 0 C3000 990 3000 1980 3000 3000 C2010 3000 1020 3000 0 3000 C0 2010 0 1020 0 0 Z " fill="#050A30" transform="translate(0,0)"/>
<path d="M0 0 C261 0 261 0 285 5 C418.155 5.495 418.155 5.495 554 6 C554 228.09 554 450.18 554 679 C371.18 679 188.36 679 0 679 C0 454.93 0 230.86 0 0 Z " fill="#F0F2F9" transform="translate(1314,805)"/>
<path d="M0 0 C85.8 0 171.6 0 260 0 C260 221.76 260 443.52 260 672 C77.84 672 -104.32 672 -292 672 C-292 578.94 -292 485.88 -292 390 C-270.55 390 -249.1 390 -227 390 C-227 461.61 -227 533.22 -227 607 C-186.41 607 -145.82 607 -104 607 C-107.3 602.38 -110.6 597.76 -114 593 C-127.23616817 571.92977446 -136.94227746 549.2710321 -142.25 525 C-142.4965332 523.87327881 -142.74306641 522.74655762 -142.99707031 521.58569336 C-146.1900005 506.21833676 -147.3884043 491.10787428 -147.3125 475.4375 C-147.31001251 474.60961975 -147.30752502 473.7817395 -147.30496216 472.92877197 C-146.99554002 405.99554002 -146.99554002 405.99554002 -131 390 C-128.73008113 389.90560022 -126.45718033 389.88257774 -124.18530273 389.88647461 C-123.11706772 389.88625557 -123.11706772 389.88625557 -122.0272522 389.8860321 C-119.66266888 389.8867313 -117.29816339 389.89452394 -114.93359375 389.90234375 C-113.29834537 389.90420791 -111.66309643 389.90563182 -110.02784729 389.90663147 C-105.71565215 389.91045682 -101.40349048 389.92028725 -97.09130859 389.93133545 C-92.69434054 389.9415492 -88.29736711 389.94612901 -83.90039062 389.95117188 C-75.26691169 389.96190951 -66.63346 389.97898613 -58 390 C-59.49184371 394.67455283 -61.41906747 398.79497518 -63.8125 403.0625 C-82.04766915 436.76844244 -85.72403046 480.89914997 -75.1484375 517.68359375 C-69.18794085 537.12318797 -61.19400741 554.4613386 -48 570 C-47.29488281 570.86753906 -46.58976562 571.73507812 -45.86328125 572.62890625 C-30.97149134 590.21828472 -8.22010384 604.14130074 15.00739503 606.1758306 C20.39596138 606.46177935 25.78830982 606.43782235 31.18286133 606.43237305 C33.00669101 606.44149514 34.8305146 606.45191202 36.65433025 606.46350574 C41.50174603 606.49079619 46.34904281 606.50055937 51.19652557 606.50647736 C55.75913147 606.51476513 60.32159879 606.53914611 64.88415527 606.56213379 C78.19354356 606.619946 91.503033 606.65218849 104.8125 606.6875 C149.4553125 606.8421875 149.4553125 606.8421875 195 607 C195 519.55 195 432.1 195 342 C151.44 342 107.88 342 63 342 C69 335 69 335 71.421875 332.21875 C79.99527733 322.20685734 87.16472136 311.44624247 93.6875 300 C94.01951416 299.42088867 94.35152832 298.84177734 94.69360352 298.24511719 C98.54010703 291.33093607 101.63314558 284.21468805 105 277 C134.7 277 164.4 277 195 277 C195 207.37 195 137.74 195 66 C158.26071584 66.51414229 158.26071584 66.51414229 121.52392578 67.17114258 C114.39624023 67.2298584 114.39624023 67.2298584 111.05270386 67.24076843 C108.73197981 67.26065011 106.411385 67.30620977 104.09152222 67.3724823 C83.44159531 67.93258229 83.44159531 67.93258229 78.3004303 63.14915466 C75.63084257 60.02712027 73.84174235 56.65702851 72 53 C70.44502319 50.94891889 70.44502319 50.94891889 68.85546875 49.30859375 C67.97503906 48.36113281 67.09460937 47.41367187 66.1875 46.4375 C64.14792012 44.26844913 62.08581514 42.12461182 60 40 C59.50693359 39.4961377 59.01386719 38.99227539 58.50585938 38.47314453 C41.94098197 21.79428861 21.74975951 10.57372716 0 2 C0 1.34 0 0.68 0 0 Z " fill="#F3F5FB" transform="translate(1607,811)"/>
<path d="M0 0 C197.54963076 0 197.54963076 0 211.0625 6.1875 C211.73385986 6.49083252 212.40521973 6.79416504 213.09692383 7.10668945 C242.54567159 20.82700928 262.63106156 48.88525207 273.97021484 78.53710938 C287.99295844 117.79769763 284.81190957 163.56024039 267.1875 201.125 C260.92765952 213.92737574 252.84690115 224.70223341 243 235 C242.37867188 235.68449219 241.75734375 236.36898438 241.1171875 237.07421875 C227.49546326 251.57936026 206.57651576 262.68703532 186.59244919 264.1798439 C184.13793494 264.24284253 181.69106007 264.2479927 179.23583984 264.22705078 C178.31754395 264.22734283 177.39924805 264.22763489 176.453125 264.22793579 C173.45562879 264.22655638 170.45838961 264.21106136 167.4609375 264.1953125 C165.36772802 264.19157742 163.27451679 264.18873279 161.18130493 264.18673706 C155.7003284 264.17913956 150.21945965 264.15952479 144.73852539 264.1373291 C139.13429217 264.11678662 133.53004135 264.10771745 127.92578125 264.09765625 C116.95047376 264.07627493 105.97524588 264.04218636 95 264 C95.00888245 264.8695079 95.01776489 265.73901581 95.0269165 266.63487244 C95.10730682 274.85833879 95.1680881 283.08167178 95.20724869 291.30544186 C95.22805895 295.53265687 95.25625522 299.75954521 95.30175781 303.98657227 C95.34545165 308.07147462 95.36918637 312.15606419 95.37950897 316.24118233 C95.38685839 317.79401124 95.40120955 319.34682444 95.42292023 320.89951897 C95.62049408 335.62488433 95.62049408 335.62488433 91.9959259 342.16795349 C90.14229471 345.57778403 89.3734619 349.37998097 88.4375 353.125 C88.22697998 353.9512085 88.01645996 354.77741699 87.79956055 355.62866211 C83.05113134 374.54393774 80.63606693 393.15436332 80.73925781 412.65942383 C80.75001351 415.06552202 80.73925819 417.47087666 80.7265625 419.87695312 C80.68327077 461.60911575 93.05381529 510.0108637 120.78515625 542.30078125 C123 545 123 545 123 547 C82.41 547 41.82 547 0 547 C0 366.49 0 185.98 0 0 Z " fill="#050A30" transform="translate(1380,871)"/>
<path d="M0 0 C1.12926753 -0.00275499 2.25853506 -0.00550999 3.42202282 -0.00834846 C4.66658906 -0.00115225 5.9111553 0.00604397 7.19343567 0.01345825 C8.53545018 0.01407088 9.87746534 0.01380401 11.21947956 0.01272774 C14.81612085 0.01227588 18.41262928 0.02387469 22.0092392 0.03794861 C25.38310163 0.04933129 28.75693162 0.04987445 32.1308136 0.05130005 C42.00041944 0.06179827 51.87000052 0.08972054 61.73957825 0.11550903 C83.78770325 0.15675903 105.83582825 0.19800903 128.55207825 0.24050903 C128.55207825 87.36050903 128.55207825 174.48050903 128.55207825 264.24050903 C98.91395325 264.34363403 69.27582825 264.44675903 38.73957825 264.55300903 C24.74652283 264.62128906 24.74652283 264.62128906 10.47077942 264.69094849 C-0.99613953 264.71353149 -0.99613953 264.71353149 -6.37887573 264.71772766 C-10.10652815 264.72235137 -13.83381786 264.74094848 -17.56137085 264.76838684 C-22.33917813 264.80308168 -27.11646987 264.81289253 -31.89439142 264.80587041 C-33.6334385 264.80733534 -35.37250656 264.81701206 -37.11144412 264.83658469 C-61.11384846 265.09385142 -81.97996217 257.6390731 -100.44792175 242.24050903 C-101.3708905 241.48125122 -102.29385925 240.72199341 -103.24479675 239.93972778 C-128.99252526 217.71958355 -144.50507948 183.03558166 -147.25309753 149.42996216 C-148.33717398 131.68262538 -148.54698183 113.62501587 -144.44792175 96.24050903 C-144.25987976 95.42002075 -144.07183777 94.59953247 -143.87809753 93.75418091 C-140.56824026 79.77747256 -135.37355718 66.82396089 -128.44792175 54.24050903 C-128.09705505 53.5386145 -127.74618835 52.83671997 -127.38468933 52.11355591 C-125.72138279 49.2213585 -124.58334621 47.54743586 -121.28215027 46.65505981 C-118.58561269 46.42721305 -115.9656484 46.42658591 -113.26042175 46.49050903 C-111.26941994 46.46609263 -109.27850351 46.4334306 -107.2877655 46.39285278 C-105.8044574 46.36747437 -105.8044574 46.36747437 -104.29118347 46.34158325 C-69.6082237 45.1086496 -35.45044935 27.31182783 -10.5065155 4.08816528 C-6.85627977 0.8119575 -4.82124262 -0.0090201 0 0 Z " fill="#050A30" transform="translate(1673.4479217529297,1153.7594909667969)"/>
<path d="M0 0 C0.98355469 0.00515625 1.96710938 0.0103125 2.98046875 0.015625 C20.90336758 0.79367332 37.37334986 9.98086689 49.67382812 22.54003906 C53.08907572 26.29982931 55.58990213 30.55557221 58 35 C58.45890625 35.82242187 58.9178125 36.64484375 59.390625 37.4921875 C68.39644655 54.47304379 70.51625919 72.1657132 70.39111328 91.05151367 C70.37504183 93.9300081 70.39104009 96.80709496 70.41015625 99.68554688 C70.44282312 126.73966463 63.53611954 151.44897663 44.75 171.625 C28.95196381 186.72555115 7.64636868 190.74801988 -13.4140625 190.30859375 C-32.85081271 189.50895961 -50.19083218 181.53370721 -63.625 167.375 C-84.64021799 141.95894813 -87.09352715 107.1050101 -84.7265625 75.54296875 C-82.45471291 55.76073125 -75.85544075 35.70530979 -62 21 C-61.28585937 20.23300781 -60.57171875 19.46601562 -59.8359375 18.67578125 C-43.29134303 2.38018569 -22.11757749 -0.39467854 0 0 Z " fill="#060B31" transform="translate(1212,1740)"/>
<path d="M0 0 C37.29 0 74.58 0 113 0 C113 69.63 113 139.26 113 211 C83.3 211 53.6 211 23 211 C26.19750284 199.27582293 26.19750284 199.27582293 28.375 193.4375 C30.82031332 186.45263381 32.29133105 179.32100983 33.6875 172.0625 C33.88972168 171.01570068 34.09194336 169.96890137 34.30029297 168.89038086 C37.0265654 154.1637427 38.38486341 139.88596135 38.3125 124.9375 C38.31034485 124.13051666 38.3081897 123.32353333 38.30596924 122.49209595 C38.11297503 77.25057181 23.74889083 37.99822533 0 0 Z " fill="#060B31" transform="translate(1689,877)"/>
<path d="M0 0 C9.57 0 19.14 0 29 0 C38.28136587 11.58426116 38.28136587 11.58426116 40.67578125 17.0234375 C43.94407834 24.04248058 47.8602236 30.46735488 52 37 C53.34673628 39.18566276 54.69049649 41.37316213 56.03125 43.5625 C59.8247219 49.72689184 63.65660118 55.86664771 67.5 62 C74.10770127 72.54600277 80.63744641 83.13866886 87.15234375 93.7421875 C92.22211636 101.99272156 97.32202498 110.22451306 102.42333984 118.45556641 C105.66163266 123.68156327 108.89664306 128.90959293 112.13232422 134.13720703 C114.80203244 138.45018186 117.47242352 142.76273007 120.14453125 147.07421875 C121.20055028 148.77862759 122.25653973 150.48305475 123.3125 152.1875 C123.83376465 153.02853271 124.3550293 153.86956543 124.89208984 154.73608398 C128.03012376 159.8035783 131.15486571 164.87905118 134.26953125 169.9609375 C135.00021772 171.15211582 135.73093053 172.34327797 136.46166992 173.53442383 C137.87938097 175.84544348 139.29447615 178.1579993 140.70825195 180.47143555 C141.35366943 181.52371338 141.99908691 182.57599121 142.6640625 183.66015625 C143.23592285 184.59480713 143.8077832 185.52945801 144.39697266 186.49243164 C145.82808172 188.7310733 147.4058067 190.87440894 149 193 C149 129.31 149 65.62 149 0 C155.6 0 162.2 0 169 0 C169 78.21 169 156.42 169 237 C144 237 144 237 138.48046875 231.98046875 C136.72436523 228.72216797 136.72436523 228.72216797 135.1875 225.1875 C134.57274051 223.98061095 133.9476271 222.77894506 133.31274414 221.58251953 C132.0543316 219.18959559 130.84421672 216.78144568 129.66992188 214.34619141 C127.40229785 209.80232374 124.72704293 205.6105243 121.9375 201.375 C120.97098347 199.85735921 120.00748025 198.33779552 119.046875 196.81640625 C118.55767578 196.04441895 118.06847656 195.27243164 117.56445312 194.47705078 C114.58897058 189.76587008 111.63901675 185.03871809 108.6875 180.3125 C107.74185181 178.79825439 107.74185181 178.79825439 106.77709961 177.25341797 C105.4923985 175.19587228 104.20781255 173.13825468 102.92333984 171.08056641 C99.78410777 166.05253513 96.64192849 161.02634659 93.5 156 C92.24998536 154.00000915 90.99998538 152.00000914 89.75 150 C89.13125 149.01 88.5125 148.02 87.875 147 C52.25 90 52.25 90 50.37304688 86.99682617 C49.12961587 85.00736898 47.88612679 83.0179481 46.64257812 81.02856445 C43.41658236 75.86756362 40.19175787 70.70583612 36.96875 65.54296875 C36.30423828 64.47884766 35.63972656 63.41472656 34.95507812 62.31835938 C33.69818724 60.30557607 32.44164755 58.29257341 31.18554688 56.27929688 C27.15804784 49.83079843 23.09130044 43.40820139 19 37 C19.16251975 37.82321558 19.3250395 38.64643116 19.49248409 39.49459267 C20.05518032 43.38112994 20.13572337 47.17067694 20.12025452 51.08651733 C20.12110894 51.88385304 20.12196337 52.68118875 20.12284368 53.50268614 C20.12448621 56.16506257 20.11899725 58.8273755 20.11352539 61.48974609 C20.11324323 63.40193683 20.11340182 65.31412768 20.1139679 67.22631836 C20.11425473 72.4117576 20.10837628 77.59717369 20.10139394 82.78260756 C20.09514157 88.20383556 20.09455511 93.62506411 20.09336853 99.04629517 C20.09026078 109.30964779 20.08205486 119.57298975 20.07201904 129.83633769 C20.06084067 141.5218637 20.0553431 153.20739022 20.05032361 164.89292026 C20.0398718 188.92861961 20.0220816 212.96430876 20 237 C13.4 237 6.8 237 0 237 C0 158.79 0 80.58 0 0 Z " fill="#F0F2F9" transform="translate(918,1689)"/>
<path d="M0 0 C12.96679316 10.20726967 19.28282002 27.00706158 22.70703125 42.53125 C22.93390625 43.50964844 23.16078125 44.48804688 23.39453125 45.49609375 C26.01049968 59.03009707 25.64621524 73.95696206 23.70703125 87.53125 C-12.92296875 87.53125 -49.55296875 87.53125 -87.29296875 87.53125 C-85.01827495 121.41148585 -85.01827495 121.41148585 -67.375 149.92578125 C-55.34029328 159.20582715 -41.17559387 162.07249273 -26.29296875 160.53125 C-9.82485437 158.2277935 2.26902271 148.96925854 13.70703125 137.53125 C16.67703125 140.17125 19.64703125 142.81125 22.70703125 145.53125 C20.32401592 155.06331134 10.03772914 162.57027334 2.01953125 167.65625 C-17.96218028 179.11815201 -41.28572482 180.45536215 -63.29296875 174.53125 C-80.75416828 168.83602005 -95.29783473 157.74801765 -103.91796875 141.4609375 C-117.09849162 114.11135254 -118.94365203 81.96835811 -112.29296875 52.53125 C-112.13779785 51.84369629 -111.98262695 51.15614258 -111.82275391 50.44775391 C-106.63468646 28.2094016 -95.96604266 9.03876131 -76.41796875 -3.5625 C-72.45562052 -5.97953242 -68.69968851 -8.00477263 -64.29296875 -9.46875 C-63.4009375 -9.76523438 -62.50890625 -10.06171875 -61.58984375 -10.3671875 C-39.86418798 -16.43922975 -18.67497125 -11.96216216 0 0 Z " fill="#F0F2F8" transform="translate(1897.29296875,1752.46875)"/>
<path d="M0 0 C10.07814653 9.24120703 13.92450992 20.61512108 15 34 C15.14259591 37.65387415 15.16383857 41.30430243 15.17358398 44.96069336 C15.180271 46.01883743 15.18695801 47.07698151 15.19384766 48.16719055 C15.20782707 50.45060548 15.21974329 52.73403381 15.22979546 55.01746941 C15.24631217 58.63771847 15.26955261 62.25786815 15.29469299 65.87806702 C15.36518425 76.16630033 15.42556231 86.45457296 15.47680664 96.74291992 C15.50868684 103.04923551 15.54997827 109.35543356 15.59700203 115.66165352 C15.61295909 118.05649254 15.6253095 120.45135853 15.63390923 122.84623528 C15.64613305 126.20091506 15.67031085 129.55532069 15.69702148 132.90991211 C15.69761063 133.88840118 15.69819977 134.86689026 15.69880676 135.87503052 C15.77955406 143.57141965 16.32005477 152.07304427 20 159 C23.2636371 161.17575807 23.62461276 161.21356144 27.25 160.6875 C28.03761719 160.57921875 28.82523438 160.4709375 29.63671875 160.359375 C30.41660156 160.24078125 31.19648437 160.1221875 32 160 C32.70769531 159.90203125 33.41539062 159.8040625 34.14453125 159.703125 C35.76444144 159.47877899 37.38247004 159.24090872 39 159 C39.96070434 161.88211302 40.10581883 163.69850044 40.0625 166.6875 C40.05347656 167.49574219 40.04445313 168.30398438 40.03515625 169.13671875 C40.01775391 170.05904297 40.01775391 170.05904297 40 171 C30.1774129 175.49879646 15.49839003 180.85827147 4.828125 177.26953125 C-0.92292482 174.69835022 -3.80428824 171.39142352 -6.625 165.75 C-8.16640068 161.54617997 -9.15420202 157.38819894 -10 153 C-10.66644531 153.78503906 -11.33289062 154.57007813 -12.01953125 155.37890625 C-24.15123444 169.34025791 -37.45192983 176.4113002 -56 178 C-72.65916095 178.87106724 -88.00430543 176.1783159 -101.28125 165.49609375 C-109.06953771 158.34563995 -113.77564275 148.75769665 -114.34765625 138.203125 C-114.78949549 122.74889213 -112.33363264 111.11702112 -101.58984375 99.36328125 C-78.83722846 77.48190012 -41.78786826 68.81295341 -11 69 C-11.09535845 65.12596596 -11.20178471 61.2523903 -11.31738281 57.37890625 C-11.37334839 55.43244228 -11.42117313 53.48574957 -11.46875 51.5390625 C-11.68222182 30.23326612 -11.68222182 30.23326612 -21.4375 12.125 C-32.0380119 3.92752919 -46.17234456 3.57383268 -59 5 C-68.86558967 6.77855294 -77.85218183 11.70043633 -86.63671875 16.328125 C-89.19732568 17.60099349 -91.21672906 18.52085462 -94 19 C-96.97674419 8.39534884 -96.97674419 8.39534884 -96 4 C-93.01242837 1.32726215 -89.59913804 -0.28243665 -86 -2 C-84.96101563 -2.51691406 -83.92203125 -3.03382812 -82.8515625 -3.56640625 C-57.88980367 -15.17449689 -22.9524328 -17.38820667 0 0 Z " fill="#F1F3F9" transform="translate(1567,1752)"/>
<path d="M0 0 C0.33 35.31 0.66 70.62 1 107 C3.31 104.69 5.62 102.38 8 100 C16.96776657 94.2210145 26.66646316 91.29086752 37 89 C37.78375 88.80664062 38.5675 88.61328125 39.375 88.4140625 C55.17845205 85.92125607 74.01238834 87.85722379 87.58984375 96.68359375 C100.31725615 106.19565986 106.08056988 119.20485317 108.5761528 134.60413361 C109.29348888 140.35143477 109.26090637 146.06221044 109.22705078 151.84667969 C109.22648504 153.18833406 109.22680639 154.52998905 109.22793579 155.87164307 C109.22850397 159.47417918 109.21683747 163.07657906 109.20278788 166.67908382 C109.19019024 170.45867641 109.18910296 174.23827295 109.18673706 178.0178833 C109.18054861 185.15737243 109.1641739 192.29679948 109.14403808 199.43626142 C109.12159651 207.57180541 109.11066499 215.70735253 109.10064721 223.84291983 C109.07980498 240.5619885 109.04316216 257.28097179 109 274 C100.09 274 91.18 274 82 274 C81.9906543 269.94823486 81.98130859 265.89646973 81.97167969 261.72192383 C81.93785156 248.30684209 81.8824691 234.89192109 81.81609726 221.476964 C81.77639438 213.34670013 81.74395767 205.21653182 81.72900391 197.08618164 C81.71594177 189.99455522 81.68886177 182.90313985 81.64538693 175.81163234 C81.62287389 172.06140506 81.60708315 168.31143708 81.60811615 164.56113625 C81.60886885 161.0208499 81.59067788 157.48113453 81.55883217 153.94099617 C81.54644191 152.04343756 81.55334945 150.14578252 81.56114197 148.24819946 C81.40200688 134.95497702 78.20452351 124.20452351 68.75 114.75 C57.41287155 107.53546371 44.15414633 106.47430895 31.109375 108.6484375 C22.55074211 110.70884912 15.18334739 113.89498064 8 119 C7.41534186 119.33023729 6.83068373 119.66047459 6.22830868 120.00071907 C2.87560586 122.22538062 1.23803438 123.92974487 0.3491993 127.92614365 C0.09586608 131.74586897 0.06769802 135.53429032 0.11352539 139.35888672 C0.10563183 140.82775248 0.09466755 142.29660446 0.08087158 143.76542664 C0.05218568 147.74261042 0.06635836 151.71861507 0.08831334 155.6957984 C0.10396114 159.85589422 0.08007511 164.01576 0.06040955 168.17581177 C0.02918543 176.04871775 0.03343847 183.9211876 0.05048412 191.79412091 C0.06816335 200.75911219 0.04622207 209.72387011 0.02097714 218.68882728 C-0.03005473 237.12598186 -0.03000515 255.56281144 0 274 C-8.58 274 -17.16 274 -26 274 C-26 183.91 -26 93.82 -26 1 C-17.49535069 -0.70092986 -8.67307455 0 0 0 Z " fill="#F1F3FA" transform="translate(2127,1652)"/>
<path d="M0 0 C0.98355469 0.00515625 1.96710938 0.0103125 2.98046875 0.015625 C20.90336758 0.79367332 37.37334986 9.98086689 49.67382812 22.54003906 C53.08907572 26.29982931 55.58990213 30.55557221 58 35 C58.45890625 35.82242187 58.9178125 36.64484375 59.390625 37.4921875 C68.39644655 54.47304379 70.51625919 72.1657132 70.39111328 91.05151367 C70.37504183 93.9300081 70.39104009 96.80709496 70.41015625 99.68554688 C70.44282312 126.73966463 63.53611954 151.44897663 44.75 171.625 C28.95196381 186.72555115 7.64636868 190.74801988 -13.4140625 190.30859375 C-32.85081271 189.50895961 -50.19083218 181.53370721 -63.625 167.375 C-84.64021799 141.95894813 -87.09352715 107.1050101 -84.7265625 75.54296875 C-82.45471291 55.76073125 -75.85544075 35.70530979 -62 21 C-61.28585937 20.23300781 -60.57171875 19.46601562 -59.8359375 18.67578125 C-43.29134303 2.38018569 -22.11757749 -0.39467854 0 0 Z M-41.01953125 29.390625 C-59.6331129 53.91502843 -59.65363294 90.34390108 -55.87036133 119.49243164 C-53.22567807 137.21793563 -48.73505994 154.54933036 -34.3125 166.46484375 C-22.86902445 174.06161046 -9.5653943 175.65746916 3.7421875 173.3515625 C15.78545074 170.26827629 25.17596772 164.12085836 31.5546875 153.3828125 C35.53547495 145.91636042 38.14173016 138.24396074 40 130 C40.17877686 129.2371167 40.35755371 128.4742334 40.54174805 127.68823242 C42.50358631 117.99613967 42.33696179 108.22053404 42.31567383 98.37524414 C42.31252475 95.3363823 42.33599913 92.29850702 42.36132812 89.25976562 C42.43203145 67.64481113 40.21415037 44.35163218 24.8671875 27.68359375 C16.19372598 19.47855959 5.65616608 15.59414483 -6.25 15.6875 C-6.99507812 15.69241455 -7.74015625 15.6973291 -8.5078125 15.70239258 C-21.01667836 15.96615002 -32.33234606 20.16590939 -41.01953125 29.390625 Z " fill="#F1F3F9" transform="translate(1212,1740)"/>
<path d="M0 0 C53.79 0 107.58 0 163 0 C163 5.61 163 11.22 163 17 C140.56 17 118.12 17 95 17 C95 89.6 95 162.2 95 237 C86.09 237 77.18 237 68 237 C68 164.4 68 91.8 68 17 C45.56 17 23.12 17 0 17 C0 11.39 0 5.78 0 0 Z " fill="#F3F5FB" transform="translate(1610,1689)"/>
<path d="M0 0 C6.6 0 13.2 0 20 0 C19.27037736 3.6481132 18.4712805 6.81529044 17.28857422 10.30126953 C16.93606094 11.34501236 16.58354767 12.38875519 16.22035217 13.46412659 C15.83568283 14.59229294 15.45101349 15.72045929 15.0546875 16.8828125 C14.65305893 18.06814072 14.25143036 19.25346893 13.83763123 20.47471619 C12.74695779 23.69045681 11.65334373 26.9051652 10.55807877 30.1193428 C9.87235121 32.13277737 9.18784784 34.14662394 8.50375366 36.16061401 C2.55621163 53.66924219 -3.45731558 71.15353649 -9.57849121 88.60232544 C-15.51346473 105.52211003 -21.29125393 122.49367048 -27.04931641 139.47436523 C-27.747681 141.53370509 -28.44608511 143.59303155 -29.14453125 145.65234375 C-29.4799292 146.64125107 -29.81532715 147.63015839 -30.16088867 148.64903259 C-34.05378153 160.11813926 -38.01821194 171.56140885 -42 183 C-50.25 183 -58.5 183 -67 183 C-67.61818604 181.16526123 -68.23637207 179.33052246 -68.87329102 177.44018555 C-83.03440547 135.31342505 -83.03440547 135.31342505 -97.5625 93.3125 C-103.59903541 76.13238241 -109.49973309 58.90701996 -115.35421753 41.66415405 C-116.36153458 38.69748487 -117.37098006 35.73155415 -118.38235474 32.76626587 C-119.57553478 29.26727881 -120.7639768 25.76671753 -121.94881248 22.26489639 C-122.38975042 20.96398345 -122.83223381 19.66359316 -123.27636147 18.36376572 C-123.89027702 16.56585746 -124.49776709 14.76575903 -125.10498047 12.96557617 C-125.44834442 11.95387863 -125.79170837 10.94218109 -126.14547729 9.89982605 C-127 7 -127 7 -128 1 C-117.77 1 -107.54 1 -97 1 C-92.31610747 15.477486 -87.65738029 29.94320587 -83.33203125 44.53125 C-81.71760401 49.97277126 -80.02334474 55.38790322 -78.31994629 60.80212402 C-74.39264448 73.28951044 -70.51996677 85.79215877 -66.69921875 98.3125 C-66.21316449 99.90390371 -65.72706433 101.49529341 -65.24092102 103.08666992 C-63.97959739 107.21600722 -62.71888479 111.3455308 -61.45831299 115.47509766 C-60.16464542 119.712681 -58.87038124 123.95008211 -57.57617188 128.1875 C-55.05020748 136.4581582 -52.52489057 144.72901392 -50 153 C-49.71929153 152.10056168 -49.43858307 151.20112335 -49.14936829 150.27442932 C-40.76532586 123.44247511 -32.04398475 96.72796204 -23.21362305 70.03997803 C-21.83393649 65.86850245 -20.45635284 61.69633384 -19.07886791 57.52413082 C-12.74528524 38.34067163 -6.39424138 19.16333684 0 0 Z " fill="#F1F3F9" transform="translate(1423,1743)"/>
<path d="M0 0 C-0.30947671 1.93798521 -0.62268834 3.87537426 -0.9375 5.8125 C-1.11152344 6.89144531 -1.28554687 7.97039062 -1.46484375 9.08203125 C-2 12 -2 12 -3 15 C-6.89853599 13.46973354 -10.72809007 11.80882507 -14.5625 10.125 C-23.76351104 6.15881672 -32.87572467 2.36844673 -43 2 C-44.0828125 1.96003906 -45.165625 1.92007812 -46.28125 1.87890625 C-61.99768008 1.58849396 -74.05633654 4.36137563 -85.67578125 15.43359375 C-93.41707136 23.9815393 -96.81572521 33.84351312 -99 45 C-99.14953125 45.75361816 -99.2990625 46.50723633 -99.453125 47.28369141 C-104.88710194 75.97017096 -106.01758782 113.56803954 -89.38671875 138.99609375 C-88.70029297 139.98802734 -88.70029297 139.98802734 -88 141 C-87.13375 142.3303125 -87.13375 142.3303125 -86.25 143.6875 C-77.24254162 152.94516556 -67.267372 157.13214315 -54.51049805 157.36352539 C-36.09845729 157.43227616 -22.78400736 154.09045217 -9.0234375 141.015625 C-7.34702673 139.34568685 -5.67317759 137.67317759 -4 136 C1.445 139.465 1.445 139.465 7 143 C1.62539315 156.43651712 -11.29196821 164.62320228 -24.08935547 170.22021484 C-43.15419776 178.0010871 -66.24778394 177.15590893 -85.3125 169.75 C-102.36492394 161.96119015 -116.01260836 149.40249939 -122.71875 131.62890625 C-135.04201594 96.85335903 -135.42689256 56.44613928 -119.375 22.75 C-115.46415786 14.95388298 -110.24275393 9.0150547 -104 3 C-103.44054688 2.40960937 -102.88109375 1.81921875 -102.3046875 1.2109375 C-75.52611729 -25.00682495 -28.95431225 -17.29897469 0 0 Z " fill="#F0F2F8" transform="translate(2071,1755)"/>
<path d="M0 0 C9.99942066 5.13339242 17.43861663 13.85022151 20.91845703 24.55664062 C22.3147045 29.48717403 23.32924411 34.4611381 24.25 39.5 C24.40210938 40.30953125 24.55421875 41.1190625 24.7109375 41.953125 C25.87326994 49.93238015 25.25 58.75545698 25.25 66.5 C-3.46 66.5 -32.17 66.5 -61.75 66.5 C-61.75 51.19135802 -61.75 51.19135802 -60.5625 44.5 C-60.43012939 43.73945312 -60.29775879 42.97890625 -60.16137695 42.1953125 C-57.48961638 27.93792202 -51.36523352 13.68603705 -39.75 4.5 C-28.31770429 -2.32880071 -12.84145877 -4.63435793 0 0 Z " fill="#060B31" transform="translate(1872.75,1757.5)"/>
<path d="M0 0 C0.20401044 7.48853633 0.34342476 14.97634813 0.43945312 22.46704102 C0.47951191 25.01125873 0.53397671 27.55529428 0.60351562 30.09887695 C0.70133776 33.77080358 0.74610543 37.44028258 0.78125 41.11328125 C0.82254028 42.23769119 0.86383057 43.36210114 0.90637207 44.52058411 C0.91202357 54.62448114 -3.47335046 60.27435321 -10.27868652 67.37886047 C-18.79258606 75.73505025 -30.36852512 80.24860133 -42.25 80.375 C-52.54655856 80.21236926 -61.56867237 77.3637701 -69 70 C-74.21757963 63.34492394 -76.38297973 56.65412975 -76.3125 48.1875 C-76.30686035 47.47972412 -76.3012207 46.77194824 -76.29541016 46.04272461 C-76.16690489 40.49600461 -75.51909064 35.94203278 -73 31 C-72.62101562 30.25492188 -72.24203125 29.50984375 -71.8515625 28.7421875 C-63.9332631 15.23988506 -48.09952056 9.36112505 -33.66015625 5.5234375 C-11.36669132 -0.06534263 -11.36669132 -0.06534263 0 0 Z " fill="#070C31" transform="translate(1556,1834)"/>
<path d="M0 0 C4.67971407 3.42418103 7.82792918 7.34659908 9.5625 12.875 C9.74765192 15.5149195 9.83965006 18.05711051 9.8359375 20.6953125 C9.85621124 22.21485132 9.87706172 23.73438253 9.8984375 25.25390625 C9.92110045 27.63499425 9.93753858 30.01578144 9.94335938 32.39697266 C9.9528606 34.70529577 9.98658437 37.012287 10.0234375 39.3203125 C10.01839203 40.03285187 10.01334656 40.74539124 10.00814819 41.47952271 C10.07303824 44.72978989 10.10706348 46.41838877 12.45556641 48.77294922 C13.15085449 49.13662598 13.84614258 49.50030273 14.5625 49.875 C15.305 50.266875 16.0475 50.65875 16.8125 51.0625 C17.39 51.330625 17.9675 51.59875 18.5625 51.875 C18.5625 52.865 18.5625 53.855 18.5625 54.875 C8.6625 54.875 -1.2375 54.875 -11.4375 54.875 C-11.4375 53.885 -11.4375 52.895 -11.4375 51.875 C-10.87160156 51.60945313 -10.30570313 51.34390625 -9.72265625 51.0703125 C-8.98917969 50.71710937 -8.25570313 50.36390625 -7.5 50 C-6.40365234 49.47792969 -6.40365234 49.47792969 -5.28515625 48.9453125 C-3.27417541 48.0065023 -3.27417541 48.0065023 -2.4375 45.875 C-2.20213816 41.68306306 -2.20905923 37.48929073 -2.19726562 33.29125977 C-2.18761669 31.21263743 -2.15662173 29.13502842 -2.125 27.05664062 C-2.11846379 25.72136001 -2.11321575 24.38607234 -2.109375 23.05078125 C-2.1000293 21.84333252 -2.09068359 20.63588379 -2.08105469 19.3918457 C-2.5069511 15.18976505 -3.47811918 12.60867074 -5.4375 8.875 C-9.72194436 6.01870376 -13.41020862 6.01421198 -18.4375 6.875 C-22.10854693 8.70778796 -25.52437104 10.96187104 -28.4375 13.875 C-28.70440528 18.37999302 -28.70878292 22.89063296 -28.73266602 27.40258789 C-28.74985282 29.6680997 -28.79371837 31.93214214 -28.83789062 34.19726562 C-28.84801971 35.63801009 -28.85653514 37.07876698 -28.86328125 38.51953125 C-28.87786377 39.83284424 -28.89244629 41.14615723 -28.9074707 42.49926758 C-28.71389808 45.91911722 -28.71389808 45.91911722 -26.61401367 48.2565918 C-24.01407049 50.18985297 -21.54805265 51.02666746 -18.4375 51.875 C-18.4375 52.865 -18.4375 53.855 -18.4375 54.875 C-28.9975 54.875 -39.5575 54.875 -50.4375 54.875 C-50.1075 53.555 -49.7775 52.235 -49.4375 50.875 C-47.13497517 49.80597061 -44.8002974 48.80324183 -42.4375 47.875 C-40.85519192 44.71038385 -41.19592187 41.28420633 -41.12109375 37.8046875 C-41.10031265 37.00845978 -41.07953156 36.21223206 -41.05812073 35.39187622 C-40.99265851 32.84467315 -40.93375585 30.29736575 -40.875 27.75 C-40.8318116 26.02472873 -40.78819721 24.29946807 -40.74414062 22.57421875 C-40.63698055 18.34125315 -40.53570377 14.10818247 -40.4375 9.875 C-41.20449219 9.56820312 -41.97148438 9.26140625 -42.76171875 8.9453125 C-46.59960938 7.41015625 -46.59960938 7.41015625 -50.4375 5.875 C-50.1075 4.885 -49.7775 3.895 -49.4375 2.875 C-42.97976707 0.36423344 -36.3152034 -0.52179058 -29.4375 -0.125 C-29.1075 2.515 -28.7775 5.155 -28.4375 7.875 C-27.91800781 7.39289062 -27.39851563 6.91078125 -26.86328125 6.4140625 C-26.16589844 5.78242188 -25.46851563 5.15078125 -24.75 4.5 C-24.06550781 3.87351562 -23.38101562 3.24703125 -22.67578125 2.6015625 C-16.17163644 -2.41559632 -7.6126652 -2.4914177 0 0 Z " fill="#EFF1F8" transform="translate(1428.4375,2058.125)"/>
<path d="M0 0 C5.29794264 3.15860428 8.49719621 8.07885503 10.9375 13.625 C11.5625 16.5 11.5625 16.5 11.5625 22.5 C-0.9775 22.5 -13.5175 22.5 -26.4375 22.5 C-25.33919843 34.10354088 -25.33919843 34.10354088 -18.9375 42.9375 C-11.9177255 47.32485906 -1.90340303 46.24088068 5.875 44.5 C7.7003125 44.005 7.7003125 44.005 9.5625 43.5 C9.48471339 46.22253126 9.13465386 47.9436515 7.1484375 49.875 C-0.77544807 55.73937346 -8.77907421 56.37401562 -18.4375 55.5 C-25.46070036 53.62340086 -31.00613382 48.4446944 -34.76171875 42.3515625 C-38.52334995 34.40594151 -39.14095359 24.87565273 -36.484375 16.4921875 C-32.93597408 8.96867923 -27.45411588 3.82303348 -20.4375 -0.5 C-14.1537238 -2.59459207 -6.12809057 -2.6958848 0 0 Z " fill="#EAECF4" transform="translate(1586.4375,2058.5)"/>
<path d="M0 0 C0.01458252 1.03817871 0.02916504 2.07635742 0.04418945 3.14599609 C0.10268225 7.04150815 0.17990613 10.93647255 0.26245117 14.83154297 C0.29546296 16.50918613 0.32356676 18.18693402 0.34643555 19.86474609 C0.14394924 33.32820644 0.14394924 33.32820644 4 46 C8.07223584 48.71482389 11.21528221 48.76495488 16 48 C19.52639833 46.50101111 23.25909477 44.74090523 26 42 C26.15971977 39.62661361 26.2592433 37.27881728 26.31640625 34.90234375 C26.33718735 34.19348526 26.35796844 33.48462677 26.37937927 32.75428772 C26.44494598 30.48212695 26.5037923 28.20984736 26.5625 25.9375 C26.60567849 24.40037817 26.64929255 22.8632685 26.69335938 21.32617188 C26.80063449 17.5509041 26.90188137 13.7755164 27 10 C26.23300781 9.69320312 25.46601562 9.38640625 24.67578125 9.0703125 C22.1171875 8.046875 19.55859375 7.0234375 17 6 C17.33 5.01 17.66 4.02 18 3 C20.44140625 2.05078125 20.44140625 2.05078125 23.5625 1.3125 C24.57441406 1.06113281 25.58632812 0.80976563 26.62890625 0.55078125 C30.50751408 -0.08291945 34.07213652 -0.03568254 38 0 C38.00586624 0.55710159 38.01173248 1.11420319 38.01777649 1.68818665 C38.08164414 7.47955461 38.16604596 13.27036344 38.26245117 19.0612793 C38.29573322 21.22331375 38.32375485 23.38543577 38.34643555 25.54760742 C38.37992108 28.65321218 38.432234 31.75801198 38.48828125 34.86328125 C38.49467117 35.83211746 38.5010611 36.80095367 38.50764465 37.79914856 C38.53733589 39.15020943 38.53733589 39.15020943 38.56762695 40.52856445 C38.58428154 41.71770195 38.58428154 41.71770195 38.60127258 42.93086243 C39.10337165 45.53643205 39.92133305 46.39052162 42 48 C45.10007201 49.20049407 45.10007201 49.20049407 48 50 C48 50.99 48 51.98 48 53 C41.07 53.99 34.14 54.98 27 56 C26.505 52.04 26.505 52.04 26 48 C25.48050781 48.40992187 24.96101563 48.81984375 24.42578125 49.2421875 C23.37970703 50.05042969 23.37970703 50.05042969 22.3125 50.875 C21.62800781 51.40867187 20.94351562 51.94234375 20.23828125 52.4921875 C15.88063323 55.42770606 12.23218963 56.29247887 7 56.3125 C5.989375 56.32925781 4.97875 56.34601562 3.9375 56.36328125 C-0.45229814 55.82039398 -3.04378442 53.95621558 -6.125 50.875 C-11.56478208 42.5340008 -11.51997623 33.64909231 -11.6875 23.9375 C-11.72074298 22.58134868 -11.75523885 21.22522747 -11.79101562 19.86914062 C-11.8729637 16.57951063 -11.94228962 13.29012945 -12 10 C-16.455 8.02 -16.455 8.02 -21 6 C-20.67 5.01 -20.34 4.02 -20 3 C-17.55859375 2.05078125 -17.55859375 2.05078125 -14.4375 1.3125 C-13.42558594 1.06113281 -12.41367188 0.80976563 -11.37109375 0.55078125 C-7.49248592 -0.08291945 -3.92786348 -0.03568254 0 0 Z " fill="#EEF0F7" transform="translate(1326,2058)"/>
<path d="M0 0 C9.24 0 18.48 0 28 0 C28.33 1.32 28.66 2.64 29 4 C25.535 5.485 25.535 5.485 22 7 C22.48875858 14.16499284 25.34280338 20.35710611 28.0625 26.9375 C28.53494141 28.09830078 29.00738281 29.25910156 29.49414062 30.45507812 C30.65576319 33.30633351 31.8245496 36.15442386 33 39 C36.06758937 34.39861594 37.72869843 29.27782887 39.6875 24.125 C40.33041992 22.49111328 40.33041992 22.49111328 40.98632812 20.82421875 C41.38658203 19.77105469 41.78683594 18.71789063 42.19921875 17.6328125 C42.56877686 16.67262207 42.93833496 15.71243164 43.3190918 14.72314453 C44.08145131 11.67425318 44.05011239 9.95358061 43 7 C40.03292954 5.14083176 40.03292954 5.14083176 37 4 C37 2.68 37 1.36 37 0 C44.26 0 51.52 0 59 0 C58.67 1.65 58.34 3.3 58 5 C57.236875 5.433125 56.47375 5.86625 55.6875 6.3125 C49.70637179 10.06809213 47.60319574 19.19768682 45.06640625 25.546875 C44.70659164 26.43932922 44.34677704 27.33178345 43.97605896 28.25128174 C42.8350772 31.08294058 41.69860668 33.91638214 40.5625 36.75 C39.80435868 38.63554626 39.04589775 40.52096404 38.28710938 42.40625 C37.91783325 43.32377045 37.54855713 44.24129089 37.16809082 45.18661499 C35.75647646 48.69136801 34.34252461 52.19517388 32.92749023 55.69854736 C32.100904 57.74961916 31.28035069 59.80298992 30.4609375 61.85693359 C30.03167969 62.91734863 29.60242187 63.97776367 29.16015625 65.0703125 C28.6343396 66.38153076 28.6343396 66.38153076 28.09790039 67.71923828 C25.75539731 72.58551887 22.45000914 76.03332724 18 79 C13.50625804 79.72371125 9.97299169 79.51628131 5.9375 77.375 C4 75 4 75 3.5 71.9375 C4 69 4 69 5.1875 67.125 C7.69798407 65.56676851 9.09302053 65.50368643 12 66 C12.66 66.680625 13.32 67.36125 14 68.0625 C14.99 69.0215625 14.99 69.0215625 16 70 C18.51878059 70.03646852 18.51878059 70.03646852 21 69 C22.65317686 66.93313984 22.65317686 66.93313984 23.75 64.3125 C24.15734375 63.46300781 24.5646875 62.61351563 24.984375 61.73828125 C26.57131897 57.45963616 27.4263518 54.35964103 26.03125 49.91064453 C25.5259375 48.82895996 25.020625 47.74727539 24.5 46.6328125 C24.22881348 46.04018616 23.95762695 45.44755981 23.67822266 44.8369751 C22.79994472 42.92589581 21.900682 41.02560891 21 39.125 C20.3918069 37.81657814 19.78503895 36.5074929 19.1796875 35.19775391 C18.28105417 33.25389588 17.3814095 31.31060587 16.47558594 29.37008667 C14.82282158 25.82270267 13.23761115 22.26028954 11.75 18.640625 C11.29173828 17.53050049 11.29173828 17.53050049 10.82421875 16.39794922 C10.06175687 14.52657507 9.31157989 12.6502083 8.5625 10.7734375 C6.76791709 7.58805284 5.26098358 6.5573287 2 5 C1.34 4.67 0.68 4.34 0 4 C0 2.68 0 1.36 0 0 Z " fill="#E7E9F0" transform="translate(1780,2058)"/>
<path d="M0 0 C3.1875 1.5625 3.1875 1.5625 4.1875 2.5625 C4.26021741 4.91563555 4.27120868 7.27083668 4.25 9.625 C4.24097656 10.91535156 4.23195313 12.20570313 4.22265625 13.53515625 C4.21105469 14.53417969 4.19945312 15.53320312 4.1875 16.5625 C1.1875 15.5625 1.1875 15.5625 0.23046875 13.85546875 C-0.05183594 13.16066406 -0.33414062 12.46585938 -0.625 11.75 C-2.61319142 7.57104671 -4.50517756 5.55049497 -8.8125 3.5625 C-12.38328816 2.97301505 -15.56508085 2.86082673 -18.8125 4.6875 C-20.39685067 7.65815751 -20.46434208 9.23810537 -19.8125 12.5625 C-15.31539965 17.48789562 -9.72299707 20.48920039 -3.87646484 23.58349609 C1.32092114 26.39496023 4.91645585 29.65593377 8.1875 34.5625 C8.89630848 39.81262791 8.81269342 44.26580253 6.5 49.0625 C2.13530857 53.78108533 -1.90497199 55.38831629 -8.203125 55.765625 C-15.34447609 55.85236206 -21.2966858 55.8204071 -27.8125 52.5625 C-28.8125 51.5625 -28.8125 51.5625 -28.91015625 48.18359375 C-28.90348369 46.78902923 -28.89152532 45.39448257 -28.875 44 C-28.87048828 43.28908203 -28.86597656 42.57816406 -28.86132812 41.84570312 C-28.84950864 40.08459987 -28.83157263 38.32353964 -28.8125 36.5625 C-26.93359375 36.79296875 -26.93359375 36.79296875 -24.8125 37.5625 C-23.72265625 39.48828125 -23.72265625 39.48828125 -22.875 41.875 C-21.17226284 45.98776513 -19.92478453 48.46066568 -15.8125 50.5625 C-12.67572353 51.15671631 -9.94236067 51.21903497 -6.8125 50.5625 C-3.61613275 48.27938054 -2.16789818 46.85485701 -1.125 43.0625 C-2.2850041 38.84430329 -6.10192669 36.59133416 -9.72436523 34.41259766 C-12.45477544 32.91479169 -15.20817326 31.46739108 -17.97851562 30.04492188 C-23.57440625 27.04237847 -27.72687714 23.81936857 -29.8125 17.5625 C-30.39699582 12.7111847 -30.82991561 8.13359427 -27.6875 4.125 C-19.96144282 -2.76126835 -9.63549588 -3.53708077 0 0 Z " fill="#ECEEF5" transform="translate(1687.8125,2058.4375)"/>
<path d="M0 0 C8.91 0 17.82 0 27 0 C27 1.32 27 2.64 27 4 C25.02 4.99 23.04 5.98 21 7 C21.48875858 14.16499284 24.34280338 20.35710611 27.0625 26.9375 C27.53494141 28.09830078 28.00738281 29.25910156 28.49414062 30.45507812 C29.65576319 33.30633351 30.8245496 36.15442386 32 39 C34.85890113 32.76441025 37.69843358 26.53015729 40.3125 20.1875 C40.57611328 19.57197266 40.83972656 18.95644531 41.11132812 18.32226562 C42.7133891 14.39825654 43.27832561 11.22666563 43 7 C40.69 6.01 38.38 5.02 36 4 C36 2.68 36 1.36 36 0 C43.59 0 51.18 0 59 0 C59 1.32 59 2.64 59 4 C57.55842357 4.93870093 56.11227581 5.87132517 54.64103699 6.76281738 C49.03455291 10.98956224 46.39793768 19.2556413 43.79296875 25.53125 C43.42271072 26.40777222 43.0524527 27.28429443 42.67097473 28.18737793 C41.50335878 30.95558653 40.34529037 33.72766964 39.1875 36.5 C38.39190684 38.39089053 37.59568872 40.28151824 36.79882812 42.171875 C34.85865134 46.77824485 32.9270198 51.3881115 31 56 C28.64151001 55.76803589 28.64151001 55.76803589 26 55 C24.69760132 53.15359497 24.69760132 53.15359497 23.73583984 50.71142578 C23.36550629 49.8002298 22.99517273 48.88903381 22.61361694 47.95022583 C22.23323273 46.95860443 21.85284851 45.96698303 21.4609375 44.9453125 C21.0534024 43.9328244 20.64586731 42.9203363 20.22598267 41.87716675 C18.92361912 38.63354491 17.64808936 35.38021076 16.375 32.125 C15.09071959 28.87875793 13.80088608 25.6349206 12.50259399 22.39425659 C11.69544088 20.37568242 10.89710755 18.35355474 10.10848999 16.32766724 C9.56244614 14.95141678 9.56244614 14.95141678 9.00537109 13.54736328 C8.53168594 12.33610275 8.53168594 12.33610275 8.0484314 11.10037231 C6.18267118 7.36260643 3.75309769 5.6824231 0 4 C0 2.68 0 1.36 0 0 Z " fill="#E7E9F1" transform="translate(1483,2058)"/>
<path d="M0 0 C2.76260873 1.38130436 3.8900207 2.5735238 6 5 C6.06715926 8.35796284 5.56025804 10.13160005 3.75 12.9375 C2 14 2 14 -0.4375 13.9375 C-3 13 -3 13 -5 10.875 C-6.84045289 8.74518437 -6.84045289 8.74518437 -9.4375 8.875 C-12.94725705 10.41586895 -15.04168901 12.77683218 -17 16 C-17.76040969 19.59080684 -17.76040969 19.59080684 -17.6640625 23.4453125 C-17.66884613 24.13760956 -17.67362976 24.82990662 -17.67855835 25.54318237 C-17.68194164 26.99707328 -17.67284932 28.4510419 -17.65185547 29.90478516 C-17.62497525 32.12704645 -17.65168805 34.3442969 -17.68359375 36.56640625 C-17.68029096 37.9843861 -17.6738874 39.40236284 -17.6640625 40.8203125 C-17.65842285 42.10180176 -17.6527832 43.38329102 -17.64697266 44.70361328 C-17.28466864 48.15247799 -17.28466864 48.15247799 -14.63427734 50.40185547 C-11.9950526 52.00300146 -10.04680351 52.65179388 -7 53 C-7 53.99 -7 54.98 -7 56 C-17.56 56 -28.12 56 -39 56 C-39 54.68 -39 53.36 -39 52 C-37.865625 51.71125 -36.73125 51.4225 -35.5625 51.125 C-34.386875 50.75375 -33.21125 50.3825 -32 50 C-30.38698227 46.77396455 -30.87946401 43.25289962 -30.90234375 39.7109375 C-30.9037587 38.89251373 -30.90517365 38.07408997 -30.90663147 37.23086548 C-30.9122371 34.61220675 -30.92479052 31.99363296 -30.9375 29.375 C-30.94251428 27.60156373 -30.94707731 25.82812613 -30.95117188 24.0546875 C-30.96220836 19.70309218 -30.97947675 15.3515605 -31 11 C-33.64 9.68 -36.28 8.36 -39 7 C-39 6.34 -39 5.68 -39 5 C-32.02477031 2.28084266 -26.5709681 0.85154965 -19 1 C-18.67 3.97 -18.34 6.94 -18 10 C-17.54109375 9.44570312 -17.0821875 8.89140625 -16.609375 8.3203125 C-15.99578125 7.59585938 -15.3821875 6.87140625 -14.75 6.125 C-14.14671875 5.40570312 -13.5434375 4.68640625 -12.921875 3.9453125 C-9.0090542 -0.01522562 -5.51087274 -0.66510533 0 0 Z " fill="#EAECF4" transform="translate(1644,2057)"/>
<path d="M0 0 C1.32 0 2.64 0 4 0 C4 4.62 4 9.24 4 14 C8.95 14 13.9 14 19 14 C19 15.65 19 17.3 19 19 C14.05 19 9.1 19 4 19 C4.11819525 24.6418279 4.24244003 30.28347768 4.37231445 35.92504883 C4.4156494 37.84460825 4.45732552 39.76420585 4.49731445 41.68383789 C4.55505178 44.44168614 4.61873635 47.19934241 4.68359375 49.95703125 C4.70030624 50.81649857 4.71701874 51.67596588 4.73423767 52.56147766 C4.75418289 53.36208115 4.77412811 54.16268463 4.79467773 54.98754883 C4.81799416 56.04344963 4.81799416 56.04344963 4.84178162 57.12068176 C4.94481604 59.22699083 4.94481604 59.22699083 6 62 C8.76452033 63.38226016 11.0461363 63.09525387 14.125 63.0625 C15.22070312 63.05347656 16.31640625 63.04445313 17.4453125 63.03515625 C18.28835938 63.02355469 19.13140625 63.01195313 20 63 C19.8125 65.375 19.8125 65.375 19 68 C15.19488896 70.30824751 11.37327021 70.32787424 7 70.375 C5.80375 70.40335938 4.6075 70.43171875 3.375 70.4609375 C-0.78330212 69.89302124 -2.21634796 69.14127401 -5 66 C-7.74475932 59.99615044 -8.42173894 54.33491809 -8.29296875 47.80859375 C-8.28872391 46.97787857 -8.28447906 46.14716339 -8.28010559 45.29127502 C-8.26349314 42.67300118 -8.2258763 40.05553585 -8.1875 37.4375 C-8.17243053 35.64779768 -8.15874612 33.85808313 -8.14648438 32.06835938 C-8.1136472 27.71193446 -8.06198936 23.35610365 -8 19 C-10.97 19 -13.94 19 -17 19 C-15.83972502 15.51917506 -15.45156897 15.47861703 -12.375 13.875 C-6.89506992 10.64628444 -2.84017717 5.68035434 0 0 Z " fill="#E8EAF2" transform="translate(1757,2044)"/>
<path d="M0 0 C0.00364563 0.57993713 0.00729126 1.15987427 0.01104736 1.75738525 C0.05285068 7.79227809 0.12218059 13.82640885 0.20751953 19.86083984 C0.23574911 22.11304096 0.2569537 24.36534152 0.27099609 26.61767578 C0.2923976 29.85501083 0.33903495 33.09114774 0.390625 36.328125 C0.39185364 37.33554749 0.39308228 38.34296997 0.39434814 39.38092041 C0.42997954 44.85013794 0.42997954 44.85013794 2.86621094 49.58886719 C5.16907173 51.11181174 7.38332098 52.12777366 10 53 C10 53.99 10 54.98 10 56 C-0.56 56 -11.12 56 -22 56 C-21.67 54.68 -21.34 53.36 -21 52 C-18.36 51.34 -15.72 50.68 -13 50 C-13 37.13 -13 24.26 -13 11 C-15.64 9.68 -18.28 8.36 -21 7 C-21 6.01 -21 5.02 -21 4 C-18.43923903 3.32595716 -15.87673417 2.660586 -13.3125 2 C-12.59126953 1.80921875 -11.87003906 1.6184375 -11.12695312 1.421875 C-10.06831055 1.15117187 -10.06831055 1.15117187 -8.98828125 0.875 C-8.02208862 0.62363281 -8.02208862 0.62363281 -7.03637695 0.3671875 C-4.66214942 -0.06091923 -2.40830245 -0.02329331 0 0 Z " fill="#E8EAF2" transform="translate(1727,2057)"/>
<path d="M0 0 C0.01458252 1.30670654 0.02916504 2.61341309 0.04418945 3.9597168 C0.10222815 8.81481075 0.17946116 13.66944363 0.26245117 18.52416992 C0.29567422 20.62402861 0.3237143 22.72397603 0.34643555 24.82397461 C0.38002936 27.84527344 0.43234834 30.86576101 0.48828125 33.88671875 C0.49467117 34.82335861 0.5010611 35.75999847 0.50764465 36.72502136 C0.61729508 41.60277757 0.78728558 45.0614501 4 49 C5.76580116 50.19873855 5.76580116 50.19873855 7.6875 50.8125 C8.780625 51.204375 9.87375 51.59625 11 52 C11 52.99 11 53.98 11 55 C0.44 55 -10.12 55 -21 55 C-20.67 53.68 -20.34 52.36 -20 51 C-16.5 49.3125 -16.5 49.3125 -13 48 C-11.59374449 46.82170415 -11.59374449 46.82170415 -11.88647461 43.48999023 C-11.88663374 41.92951578 -11.89232858 40.36903607 -11.90234375 38.80859375 C-11.90446617 37.57883568 -11.90446617 37.57883568 -11.90663147 36.32423401 C-11.91224711 33.69528618 -11.92480221 31.06642227 -11.9375 28.4375 C-11.94251299 26.65950643 -11.94707624 24.88151154 -11.95117188 23.10351562 C-11.96222161 18.73564455 -11.97949669 14.36783652 -12 10 C-14.64 8.68 -17.28 7.36 -20 6 C-20 5.01 -20 4.02 -20 3 C-18.17008682 2.48762431 -16.33582686 1.99076559 -14.5 1.5 C-13.4790625 1.2215625 -12.458125 0.943125 -11.40625 0.65625 C-7.48194645 -0.09980848 -3.99252523 -0.04324035 0 0 Z " fill="#EFF1F8" transform="translate(1472,2058)"/>
<path d="M0 0 C3.48048059 2.1185534 5.67276427 4.12889578 7 8 C7.6875 11.6875 7.6875 11.6875 8 15 C4.64508595 18.35491405 -4.49012892 17.05567809 -9.06591797 17.06811523 C-12.04414741 17.05999343 -15.0219823 17.03573621 -18 17 C-17.54492172 12.41036908 -17.0395071 9.30525881 -14.125 5.6875 C-13.61195312 5.03136719 -13.09890625 4.37523438 -12.5703125 3.69921875 C-8.88214483 -0.29170896 -5.1810867 -0.82978342 0 0 Z " fill="#0C1136" transform="translate(1578,2061)"/>
<path d="M0 0 C1.9375 1.0625 1.9375 1.0625 3 3 C3.49891602 6.92005446 3.55253414 9.11594538 1.4375 12.5 C-1 14 -1 14 -4.5625 14 C-8 13 -8 13 -10 11.375 C-11.45331917 7.92336696 -10.92604949 5.57190516 -10 2 C-6.30513897 -0.46324069 -4.36706908 -0.38991688 0 0 Z " fill="#E8EBF2" transform="translate(1724,2030)"/>
<path d="M0 0 C3.625 0.375 3.625 0.375 6.125 1.9375 C7.625 4.375 7.625 4.375 7.625 7.9375 C6.625 11.375 6.625 11.375 4.875 13.3125 C2.10208502 14.62193207 0.64980283 14.97996057 -2.375 14.375 C-4.75 12.3125 -4.75 12.3125 -6.375 9.375 C-6.18819799 3.86434072 -5.98170158 0.66463351 0 0 Z " fill="#EBEDF4" transform="translate(1465.375,2029.625)"/>
</svg>
